<?xml version="1.0" encoding="UTF-8"?>
<svg id="Camada_1" xmlns="http://www.w3.org/2000/svg" version="1.1" viewBox="0 0 512 512">
  <!-- Generator: Adobe Illustrator 29.8.3, SVG Export Plug-In . SVG Version: 2.1.1 Build 3)  -->
  <defs>
    <style>
      .st0 {
        fill: #0342ad;
      }

      .st1 {
        fill: #fff;
      }

      .st2 {
        fill: #2bb931;
      }

      .st3 {
        fill: #ff0;
      }
    </style>
  </defs>
  <rect class="st2" y="0" width="512" height="512"/>
  <g>
    <ellipse class="st3" cx="256" cy="252.55" rx="204.7" ry="109.76"/>
    <ellipse class="st0" cx="231.77" cy="255.09" rx="180.47" ry="87.48"/>
    <g>
      <polygon class="st1" points="126.79 235.2 126.79 220.23 100.33 220.23 82.43 220.23 82.43 235.2 82.43 247.09 82.43 261.32 82.43 289.79 100.33 289.79 100.33 261.32 123.08 261.32 123.08 247.09 100.33 247.09 100.33 235.2 126.79 235.2"/>
      <path class="st1" d="M204.88,251.34s-6.77-.54-9.46,7.29v-6.27h-14.38v36.69h15.7v-18.1s.59-8.8,6.9-8.71c0,0,1.42-.2,4.4,1.42l4.99-10.13s-2.98-2.01-8.14-2.2Z"/>
      <path class="st1" d="M242.82,251.34s-6.77-.54-9.46,7.29v-6.27h-14.38v36.69h15.7v-18.1s.59-8.8,6.9-8.71c0,0,1.42-.2,4.4,1.42l4.99-10.13s-2.98-2.01-8.14-2.2Z"/>
      <path class="st1" d="M293.39,218.96h-20.74l-23.38,70.63h19.86l3.03-11.74h21.42l3.13,11.74h19.96l-23.28-70.63ZM276.17,262.49l6.8-25.34,6.6,25.34h-13.4Z"/>
      <path class="st1" d="M343.77,266.55l12.86-1.66s-.15-12.67-20.89-13.06c0,0-20.35-.1-20.15,19.66,0,0-1.17,19.08,20.93,18.1,0,0,18,2.05,20.93-13.6l-13.4-1.27s-.89,6.26-7.54,5.28c0,0-6.84,1.17-6.94-8.41,0,0-.59-9.78,7.63-9.98,0,0,5.28-.78,6.55,4.94Z"/>
      <path class="st1" d="M328.8,294.24s.34-4.4,3.08-4.35h7.19s7.04.24,7.24,6.26c0,0,.98,7.48-11.89,7.24,0,0-5.04-.05-8.9-.88v-4.5s3.52.88,7.83.88c0,0,4.94.24,4.7-2.89,0,0,.29-2.79-4.35-2.3,0,0-1.32-.24-3.13.64l-1.76-.1Z"/>
      <path class="st1" d="M379.87,252.47c-13.87.11-20.54,8.38-20.54,18.71s8.29,18.89,20.54,18.71c13.5-.2,20.54-8.38,20.54-18.71s-6.9-18.82-20.54-18.71ZM386.66,271.01c-.07,10.13-6.93,9.39-6.93,9.39-7.74-.37-6.57-9.39-6.57-9.39-.4-9.76,6.72-9.46,6.72-9.46,7.56.11,6.78,9.46,6.78,9.46Z"/>
      <path class="st1" d="M150.56,251.33s-22.99-1.66-23.09,19.77c0,0-.98,18.88,22.6,18.68,0,0,17.8,1.57,23.18-10.57l-15.46-1.37s-1.65,3.42-7.04,3.13c0,0-6.95.88-7.54-6.85h30.82v-3.94s1.66-18.67-23.48-18.86ZM158.1,267.19h-14.97c1.66-8.22,7.64-7.24,7.64-7.24,8.23-.2,7.33,7.24,7.33,7.24Z"/>
    </g>
    <g>
      <path class="st3" d="M154,212.52h-3.42l-6.55,13.5c-.99,2.06-1.77,3.78-2.3,5.15-.08-1.44-.23-2.94-.43-4.48l-1.87-14.02-.02-.15h-3.35l-3.9,21.78-.04.2h2.77l2.49-13.95c.13-.69.26-1.55.39-2.59.07.92.15,1.75.25,2.51l1.86,13.88.02.15h2.66l6.96-14.25c.34-.71.67-1.41.96-2.09-.51,2.03-.93,3.9-1.24,5.61l-1.94,10.53-.04.21h2.8l3.89-21.78.04-.2Z"/>
      <path class="st3" d="M161.28,218.13c-1.29,0-2.5.41-3.61,1.21-1.1.8-2.01,2.03-2.7,3.66-.69,1.62-1.03,3.32-1.03,5.05,0,1.33.22,2.53.67,3.57.44,1.05,1.11,1.87,1.96,2.42.86.55,1.81.83,2.84.83,1.64,0,3.06-.6,4.24-1.79,1.17-1.18,1.93-2.44,2.25-3.76l.05-.19-2.56-.31-.05.13c-.41,1.1-.98,1.94-1.71,2.52-.72.57-1.47.86-2.21.86s-1.44-.37-1.98-1.09c-.55-.74-.83-1.83-.83-3.25,0-.2.01-.42.03-.65h9.89l.02-.15c.12-.8.18-1.61.18-2.39,0-2.04-.5-3.68-1.47-4.86-.99-1.2-2.33-1.8-3.98-1.8ZM157.08,224.95c.39-1.44.96-2.53,1.7-3.26.77-.75,1.63-1.13,2.55-1.13.86,0,1.53.33,2.08,1.01.55.68.83,1.68.83,2.97,0,.09,0,.23,0,.42h-7.15Z"/>
      <path class="st3" d="M173.05,220.9h2.24l.44-2.41h-2.25l1.06-5.91-2.96,2.09-.06.04-.68,3.78h-1.81l-.43,2.41h1.81l-1.6,8.9c-.22,1.26-.33,2.05-.33,2.41,0,.72.22,1.31.66,1.74.57.55,1.34.83,2.3.83.53,0,1.08-.09,1.65-.26l.1-.03.45-2.57-.27.08c-.38.11-.82.17-1.31.17-.3,0-.52-.07-.64-.2-.12-.13-.19-.34-.19-.6,0-.12.04-.53.29-1.95l1.53-8.52Z"/>
      <path class="st3" d="M182.97,218.13c-1.59,0-2.94.43-3.99,1.28-1.05.85-1.82,2.08-2.3,3.66l-.06.2,2.67.27.04-.14c.27-.88.7-1.56,1.28-2.04.58-.47,1.33-.71,2.25-.71.97,0,1.71.23,2.21.69.35.32.53.76.53,1.33,0,.45-.08,1.02-.24,1.69-.61.26-1.6.42-2.95.48-1.46.07-2.43.16-2.96.28-.84.18-1.56.49-2.14.91-.58.42-1.06.99-1.42,1.69-.35.7-.53,1.51-.53,2.4,0,1.37.4,2.5,1.19,3.39.79.89,1.84,1.33,3.13,1.33.86,0,1.67-.19,2.43-.57.67-.33,1.36-.85,2.07-1.52.05.63.14,1.17.24,1.6l.03.13h2.67l-.04-.21c-.18-.9-.28-1.61-.28-2.09,0-.76.12-1.76.35-2.99l.75-3.9c.21-1.11.32-2.1.32-2.94,0-1.15-.39-2.1-1.17-2.81-1-.95-2.36-1.43-4.06-1.43ZM184.94,226.67c-.22,1.38-.52,2.45-.88,3.21-.39.8-.93,1.44-1.6,1.89-.67.44-1.37.67-2.1.67-.76,0-1.36-.23-1.76-.67-.42-.45-.62-1.02-.62-1.73,0-.52.13-1.01.39-1.44.26-.43.65-.74,1.15-.94.53-.21,1.47-.38,2.78-.51.86-.09,1.48-.17,1.86-.25.26-.06.53-.13.77-.23Z"/>
      <polygon class="st3" points="189.32 234.3 189.28 234.51 191.93 234.51 195.82 212.72 195.86 212.52 193.22 212.52 189.32 234.3"/>
      <path class="st3" d="M205.34,225.4c-.24,1.33-.46,2.28-.64,2.83-.27.82-.62,1.54-1.06,2.15-.42.59-.94,1.07-1.53,1.43-.58.35-1.18.52-1.79.52-.55,0-.96-.14-1.24-.44-.28-.3-.41-.71-.41-1.26,0-.46.07-1.1.22-1.92l1.8-10.02.04-.2h-2.64l-1.64,9.19c-.29,1.6-.43,2.75-.43,3.43,0,1.04.34,1.94,1,2.66.67.73,1.56,1.1,2.64,1.1,1.59,0,3.15-.91,4.66-2.71l-.42,2.36h2.47l2.83-15.82.04-.2h-2.65l-1.24,6.92Z"/>
      <polygon class="st3" points="207.36 212.8 207.6 212.52 204.25 212.52 201.67 216.93 203.95 216.93 207.36 212.8"/>
      <path class="st3" d="M218.99,221.65l1.07-2.85-.13-.07c-.7-.4-1.28-.6-1.77-.6-.73,0-1.46.31-2.15.91-.52.45-1.05,1.1-1.58,1.93l.44-2.49h-2.38l-2.84,15.82-.04.2h2.53l1.16-6.43c.47-2.66,1.13-4.53,1.95-5.55,1.28-1.57,2.52-1.88,3.52-1.04l.19.16Z"/>
      <path class="st3" d="M229.6,220.69c-.97-1.7-2.31-2.57-3.99-2.57-1.09,0-2.16.39-3.18,1.16-1.01.77-1.9,1.92-2.63,3.41-.73,1.49-1.1,3.15-1.1,4.93,0,2.17.47,3.87,1.41,5.06.95,1.21,2.14,1.81,3.54,1.81,1.24,0,2.42-.58,3.52-1.71l-.12.67c-.33,1.85-.69,3.05-1.07,3.59-.57.78-1.53,1.18-2.85,1.18-.62,0-1.14-.1-1.53-.3-.28-.15-.48-.36-.61-.63-.13-.28-.19-.72-.17-1.29v-.16s-2.64-.29-2.64-.29l-.02.17c-.04.29-.06.57-.06.82,0,.84.2,1.59.6,2.24.4.65,1.02,1.15,1.83,1.49.8.33,1.76.5,2.86.5s2.18-.27,3.06-.79c.88-.52,1.58-1.28,2.07-2.23.49-.95.88-2.27,1.18-3.94l2.71-15.13.04-.2h-2.45l-.39,2.21ZM228.67,224.68c0,1.15-.23,2.38-.68,3.63-.44,1.25-1.04,2.19-1.75,2.78-1.23,1.02-2.57,1.19-3.58.33-.44-.38-.79-.93-1.03-1.66-.17-.52-.26-1.31-.26-2.37,0-.49.11-1.22.35-2.22.22-.97.56-1.81,1-2.51.44-.69.91-1.21,1.41-1.54.49-.33,1.01-.49,1.52-.49.86,0,1.56.35,2.14,1.08.58.73.88,1.73.88,2.97Z"/>
      <polygon class="st3" points="232.62 234.3 232.58 234.51 235.23 234.51 238.06 218.69 238.1 218.48 235.46 218.48 232.62 234.3"/>
      <polygon class="st3" points="236.53 212.52 235.93 215.89 238.56 215.89 239.16 212.52 236.53 212.52"/>
      <path class="st3" d="M246.32,218.13c-1.43,0-2.71.45-3.82,1.33-1.1.88-1.97,2.17-2.55,3.85-.59,1.66-.88,3.37-.88,5.11,0,2.01.47,3.6,1.4,4.73.94,1.14,2.18,1.72,3.69,1.72,1.39,0,2.64-.49,3.73-1.47,1.08-.97,1.92-2.47,2.5-4.44l.06-.2-2.64-.32-.04.14c-.38,1.31-.9,2.3-1.56,2.93-.64.62-1.32.94-2.01.94s-1.26-.31-1.74-.94c-.48-.63-.72-1.61-.72-2.91s.19-2.59.57-3.95c.37-1.35.89-2.36,1.54-3.02.65-.65,1.39-.97,2.27-.97.75,0,1.33.26,1.79.78s.69,1.27.7,2.22v.19l2.6-.2v-.16c0-1.6-.44-2.91-1.31-3.89-.88-.98-2.07-1.48-3.56-1.48Z"/>
      <path class="st3" d="M263.38,219.56c-1-.95-2.36-1.43-4.06-1.43-1.59,0-2.94.43-3.99,1.28-1.05.85-1.82,2.08-2.3,3.66l-.06.2,2.67.27.04-.14c.27-.88.7-1.56,1.28-2.04.58-.47,1.33-.71,2.25-.71.97,0,1.71.23,2.21.69.35.32.53.76.53,1.33,0,.45-.08,1.02-.24,1.69-.61.26-1.6.42-2.95.48-1.46.07-2.43.16-2.96.28-.84.18-1.56.49-2.14.91-.58.42-1.06.99-1.42,1.69-.35.7-.53,1.51-.53,2.4,0,1.37.4,2.5,1.19,3.39.79.89,1.84,1.33,3.13,1.33.86,0,1.67-.19,2.43-.57.67-.33,1.36-.85,2.07-1.52.05.63.14,1.17.24,1.6l.03.13h2.67l-.04-.21c-.18-.9-.28-1.61-.28-2.09,0-.76.12-1.76.35-2.99l.75-3.9c.21-1.11.32-2.1.32-2.94,0-1.15-.39-2.1-1.17-2.81ZM261.28,226.67c-.22,1.38-.52,2.45-.88,3.21-.39.8-.93,1.44-1.6,1.89-.67.44-1.37.67-2.1.67-.76,0-1.36-.23-1.76-.67-.42-.45-.62-1.02-.62-1.73,0-.52.13-1.01.39-1.44.26-.43.65-.74,1.15-.94.53-.21,1.47-.38,2.78-.51.86-.09,1.48-.17,1.86-.25.26-.06.53-.13.77-.23Z"/>
    </g>
  </g>
</svg>